<svg xmlns="http://www.w3.org/2000/svg" width="512" height="512" viewBox="0 0 512 512">
  <defs>
    <radialGradient id="bg" cx="0.5" cy="0.4" r="0.6">
      <stop offset="0%" stop-color="#1a2540"/>
      <stop offset="100%" stop-color="#080c1a"/>
    </radialGradient>
    <linearGradient id="bookShadow" x1="0%" y1="0%" x2="100%" y2="100%">
      <stop offset="0%" stop-color="#fdf4e5"/>
      <stop offset="100%" stop-color="#e3c284"/>
    </linearGradient>
  </defs>

  <rect width="512" height="512" rx="64" fill="url(#bg)" />

  <circle cx="256" cy="256" r="205" fill="rgba(255,255,255,0.05)" stroke="rgba(255,255,255,0.12)" stroke-width="8"/>

  <g>
    <circle cx="256" cy="170" r="4" fill="#fcd34d"/>
    <circle cx="202" cy="120" r="6" fill="#fcd34d"/>
    <circle cx="312" cy="120" r="6" fill="#fcd34d"/>
    <circle cx="146" cy="188" r="3" fill="#fcd34d"/>
    <circle cx="366" cy="188" r="3" fill="#fcd34d"/>
    <path d="M230 200 l12 -40 l35 -12" stroke="#fcd34d" stroke-width="4" fill="none" stroke-linecap="round" stroke-linejoin="round"/>
  </g>

  <path d="M108 312 C 150 280, 200 260, 256 272 C 312 260, 362 280, 404 312 L 404 360 C 356 360, 268 360, 256 356 C 244 360, 156 360, 108 360 Z" fill="#111827" opacity="0.8"/>
  <path d="M256 272 C 312 260, 362 280, 404 312 C 362 330, 302 342, 256 338 C 210 342, 150 330, 108 312 C 150 290, 200 288, 256 298 Z" fill="url(#bookShadow)" stroke="#fefefe" stroke-width="2"/>
  <path d="M108 312 L 108 360 L 256 360 Z" fill="#fefefe" opacity="0.15"/>
  <path d="M404 312 L 404 360 L 256 360 Z" fill="#fefefe" opacity="0.15"/>

  <path d="M256 338 L 268 200 C 250 192, 230 188, 210 198 C 206 200, 204 230, 210 288 L 256 338 Z" fill="#fefefe" opacity="0.3"/>
  <path d="M256 338 L 244 200 C 262 192, 282 188, 302 198 C 306 200, 308 230, 302 288 L 256 338 Z" fill="#fefefe" opacity="0.3"/>

  <path d="M256 360 L 256 272 L 404 312" stroke="#fefefe" stroke-width="2" stroke-linecap="round" stroke-linejoin="round" opacity="0.75"/>
  <path d="M256 360 L 256 272 L 108 312" stroke="#fefefe" stroke-width="2" stroke-linecap="round" stroke-linejoin="round" opacity="0.75"/>

  <path d="M242 154 C 242 136, 270 132, 270 154 C 270 176, 242 172, 242 154 Z" fill="#fcd34d" opacity="0.6"/>
  <path d="M286 154 C 286 136, 314 132, 314 154 C 314 176, 286 172, 286 154 Z" fill="#fcd34d" opacity="0.6"/>
  <path d="M256 160 C 250 140, 262 130, 268 160" stroke="#fcd34d" stroke-width="4" fill="none" stroke-linecap="round"/>

  <path d="M256 190 C 256 230, 268 250, 280 220" stroke="#fcd34d" stroke-width="6" fill="none" stroke-linecap="round"/>
  <path d="M256 190 C 256 230, 244 250, 232 220" stroke="#fcd34d" stroke-width="6" fill="none" stroke-linecap="round"/>

</svg>

